<?xml version="1.0" encoding="UTF-8" standalone="no"?>
<!-- Created with Inkscape (http://www.inkscape.org/) -->

<svg
   width="168.67188mm"
   height="39.290623mm"
   viewBox="0 0 168.67188 39.290623"
   version="1.1"
   id="svg5"
   inkscape:version="1.2.2 (732a01da63, 2022-12-09)"
   sodipodi:docname="osb.svg"
   inkscape:export-filename="osb.png"
   inkscape:export-xdpi="600.364"
   inkscape:export-ydpi="600.364"
   xmlns:inkscape="http://www.inkscape.org/namespaces/inkscape"
   xmlns:sodipodi="http://sodipodi.sourceforge.net/DTD/sodipodi-0.dtd"
   xmlns="http://www.w3.org/2000/svg"
   xmlns:svg="http://www.w3.org/2000/svg">
  <sodipodi:namedview
     id="namedview7"
     pagecolor="#505050"
     bordercolor="#eeeeee"
     borderopacity="1"
     inkscape:showpageshadow="0"
     inkscape:pageopacity="0"
     inkscape:pagecheckerboard="0"
     inkscape:deskcolor="#505050"
     inkscape:document-units="mm"
     showgrid="false"
     inkscape:zoom="1.4142136"
     inkscape:cx="326.68332"
     inkscape:cy="19.091883"
     inkscape:window-width="1920"
     inkscape:window-height="1017"
     inkscape:window-x="-8"
     inkscape:window-y="-8"
     inkscape:window-maximized="1"
     inkscape:current-layer="layer1"
     showguides="true" />
  <defs
     id="defs2" />
  <g
     inkscape:label="Layer 1"
     inkscape:groupmode="layer"
     id="layer1"
     style="display:inline"
     transform="translate(-22.886457,-45.905209)">
    <rect
       style="fill:#ffffff;stroke-width:0.2;stroke-miterlimit:10;stroke-dashoffset:39.9975;paint-order:stroke markers fill"
       id="rect377"
       width="168.67188"
       height="39.290623"
       x="22.886457"
       y="45.905209" />
  </g>
  <g
     inkscape:groupmode="layer"
     id="layer2"
     inkscape:label="Font"
     transform="translate(-22.886457,-45.905209)">
    <g
       aria-label="openSignalBox"
       id="text113"
       style="font-size:25.4px;line-height:4.99999px;font-family:'Poiret One';-inkscape-font-specification:'Poiret One';letter-spacing:0px;word-spacing:0px;stroke-width:0.264583">
      <path
         d="m 36.63905,73.908428 q -2.4384,0 -4.191,-1.8034 -1.7526,-1.8288 -1.7526,-4.2418 0,-2.413 1.778,-4.1656 1.778,-1.778 4.2672,-1.778 2.5146,0 4.2672,1.778 1.778,1.7526 1.778,4.191 0,2.413 -1.7272,4.2164 -1.7272,1.8034 -4.191,1.8034 z m 5.334,-5.969 q 0,-2.159 -1.5494,-3.7338 -1.524,-1.5748 -3.6576,-1.5748 -2.1336,0 -3.7084,1.6002 -1.5494,1.5748 -1.5494,3.7084 0,2.1336 1.5494,3.7084 1.5748,1.5494 3.7084,1.5494 2.159,0 3.683,-1.5494 1.524,-1.5748 1.524,-3.7084 z"
         id="path326" />
      <path
         d="m 45.198838,78.709028 v -16.51 h 0.8128 v 2.794 q 0.6858,-1.397 2.1336,-2.2352 1.4732,-0.8382 3.048,-0.8382 2.5146,0 4.2672,1.778 1.778,1.7526 1.778,4.2164 0,2.4638 -1.778,4.2418 -1.7526,1.7526 -4.2672,1.7526 -1.524,0 -2.9718,-0.8128 -1.4478,-0.8382 -2.2098,-2.2352 v 7.8486 z m 0.762,-10.7696 q 0,2.1336 1.5494,3.7084 1.5748,1.5494 3.7084,1.5494 2.159,0 3.683,-1.5494 1.524,-1.5748 1.524,-3.7084 0,-2.159 -1.5494,-3.7338 -1.524,-1.5748 -3.6576,-1.5748 -2.1336,0 -3.7084,1.6002 -1.5494,1.5748 -1.5494,3.7084 z"
         id="path328" />
      <path
         d="m 65.366445,73.933828 h -0.2286 q -2.413,0 -4.2164,-1.8034 -1.778,-1.8288 -1.778,-4.2418 0,-2.413 1.778,-4.1656 1.778,-1.778 4.3942,-1.778 2.6162,0 4.4958,2.0828 l -7.9756,7.874 q 1.651,1.3208 3.175,1.3208 1.524,0 2.7178,-0.6858 1.2192,-0.7112 2.0066,-1.8796 v 1.2954 q -1.8034,1.9812 -4.3688,1.9812 z m -0.2794,-11.2776 q -2.0066,0 -3.5814,1.5748 -1.5494,1.5494 -1.5494,3.5814 0,2.032 1.3462,3.556 l 7.3914,-7.3406 q -1.5748,-1.3716 -3.6068,-1.3716 z"
         id="path330" />
      <path
         d="m 73.037266,73.629028 h -0.8128 v -11.43 h 0.8128 v 2.3114 c 0.8636,-1.7272 2.3368,-2.5908 4.4196,-2.5908 1.4224,0 2.6162,0.491067 3.5814,1.4732 0.9652,0.982133 1.4478,2.175933 1.4478,3.5814 v 6.6548 h -0.8128 v -6.6548 c 0,-1.1684 -0.414867,-2.1844 -1.2446,-3.048 -0.8128,-0.8636 -1.8034,-1.2954 -2.9718,-1.2954 -1.1684,0 -2.201333,0.4318 -3.0988,1.2954 -0.880533,0.8636 -1.3208,1.8796 -1.3208,3.048 z"
         id="path332"
         sodipodi:nodetypes="cccccsssccscscsc" />
      <path
         d="m 93.585871,57.271429 q -0.5842,-1.0668 -1.6002,-1.6764 -0.9906,-0.6096 -2.2352,-0.6096 -1.2446,0 -2.1336,0.7874 -0.8636,0.762 -0.8636,2.1082 v 0.127 q 0,1.6002 1.778,2.921 0.762,0.5588 1.7018,1.117599 0.9652,0.5334 1.905,1.1684 0.9652,0.6096 1.7272,1.3208 0.7874,0.6858 1.27,1.7018 0.508,1.016 0.508,2.2352 v 0.254 q 0,2.413 -1.651,3.8354 -1.6256,1.4224 -4.0386,1.4224 -3.175,0 -4.9276,-2.6162 v -1.3716 q 0.6604,1.4478 1.9304,2.3622 1.2954,0.889 3.2004,0.889 1.905,0 3.302,-1.2192 1.397,-1.2192 1.397,-3.2512 v -0.1524 q 0,-1.27 -0.6604,-2.3114 -0.6604,-1.0668 -1.651,-1.7272 -0.9906,-0.6858 -2.159,-1.4224 -1.1684,-0.7366 -2.159,-1.3716 -0.9906,-0.634999 -1.651,-1.600199 -0.6604,-0.9652 -0.6604,-2.1082 v -0.1778 q 0,-1.778 1.143,-2.7178 1.143,-0.9398 2.8194,-0.9398 2.3368,0 3.7084,1.7272 z"
         id="path334" />
      <path
         d="m 99.326248,62.224428 v 11.4046 h -0.8128 v -11.4046 z m -0.4064,-2.793999 q -0.7366,0 -0.7366,-0.6858 0,-0.6858 0.7366,-0.6858 0.7366,0 0.7366,0.6858 0,0.6858 -0.7366,0.6858 z"
         id="path336" />
      <path
         d="m 113.32163,62.199028 h 0.8128 v 10.3632 c 0,1.964267 -0.54186,3.513667 -1.62559,4.6482 -1.08373,1.134533 -2.50613,1.7018 -4.2672,1.7018 -0.9652,0 -1.905,-0.220133 -2.8194,-0.6604 -0.9144,-0.440267 -1.6256,-1.016 -2.1336,-1.7272 v -1.1684 c 0.44027,0.8128 1.12607,1.490133 2.0574,2.032 0.94827,0.541867 1.91347,0.8128 2.8956,0.8128 1.49013,0 2.70933,-0.508 3.6576,-1.524 0.94826,-0.999067 1.42239,-2.370667 1.42239,-4.1148 v -1.7018 c -0.45719,0.931333 -1.17686,1.6764 -2.15899,2.2352 -0.98213,0.5588 -1.99813,0.8382 -3.048,0.8382 -1.65947,0 -3.08187,-0.5842 -4.2672,-1.7526 -1.18533,-1.185333 -1.778,-2.599267 -1.778,-4.2418 0,-1.642533 0.59267,-3.048 1.778,-4.2164 1.18533,-1.185333 2.60773,-1.778 4.2672,-1.778 1.10067,0 2.12513,0.2794 3.0734,0.8382 0.9652,0.541867 1.6764,1.2954 2.13359,2.2606 z m -10.43939,5.7404 c 0,1.439333 0.51647,2.683933 1.5494,3.7338 1.04987,1.032933 2.286,1.5494 3.7084,1.5494 1.43933,0 2.667,-0.516467 3.683,-1.5494 1.01599,-1.049867 1.52399,-2.294467 1.52399,-3.7338 0,-1.439333 -0.508,-2.675467 -1.52399,-3.7084 -1.016,-1.049867 -2.24367,-1.5748 -3.683,-1.5748 -1.4224,0 -2.65853,0.524933 -3.7084,1.5748 -1.03293,1.032933 -1.5494,2.269067 -1.5494,3.7084 z"
         id="path338"
         sodipodi:nodetypes="ccsssscccscscsscscscccscscscsss" />
      <path
         d="m 117.99522,73.629028 h -0.8128 v -11.43 h 0.8128 v 2.3114 q 1.2954,-2.5908 4.4196,-2.5908 2.1336,0 3.5814,1.4732 1.4478,1.4732 1.4478,3.5814 v 6.6548 h -0.8128 v -6.6548 q 0,-1.7526 -1.2446,-3.048 -1.2192,-1.2954 -2.9718,-1.2954 -1.7526,0 -3.0988,1.2954 -1.3208,1.2954 -1.3208,3.048 z"
         id="path340" />
      <path
         d="m 141.89663,62.199028 v 11.43 h -0.8128 v -2.8448 q -0.7112,1.4478 -2.1336,2.286 -1.4224,0.8382 -3.048,0.8382 -2.4892,0 -4.2672,-1.7526 -1.778,-1.778 -1.778,-4.2418 0,-2.4638 1.778,-4.2164 1.778,-1.778 4.2672,-1.778 1.6256,0 3.0988,0.8636 1.4986,0.8636 2.0828,2.286 v -2.8702 z m -11.2268,5.7404 q 0,2.1336 1.5494,3.7084 1.5748,1.5494 3.7084,1.5494 2.159,0 3.683,-1.5494 1.524,-1.5748 1.524,-3.7084 0,-2.159 -1.5494,-3.7338 -1.524,-1.5748 -3.6576,-1.5748 -2.1336,0 -3.7084,1.6002 -1.5494,1.5748 -1.5494,3.7084 z"
         id="path342" />
      <path
         d="m 151.70102,54.579029 h 0.8128 q 1.651,0 2.7686,1.0414 1.1176,1.016 1.1176,2.6162 0,0.9652 -0.635,1.9812 -0.6096,0.9906 -1.4478,1.2954 1.9558,0.482599 3.2512,2.082799 1.2954,1.6002 1.2954,4.0386 0,2.413 -1.8542,4.2164 -1.8542,1.778 -4.4958,1.778 h -0.8128 z m 0.8128,7.391399 v 10.9474 h 0.2032 q 2.1844,0 3.7592,-1.6256 1.6002,-1.6256 1.6002,-3.8608 0,-2.2352 -1.5748,-3.8354 -1.5748,-1.6256 -3.7846,-1.6256 z m 0,-6.680199 v 5.9944 h 0.2032 q 1.143,0 2.0066,-0.9144 0.889,-0.9398 0.889,-2.1336 0,-1.2192 -0.8636,-2.0828 -0.8636,-0.8636 -2.032,-0.8636 z"
         id="path346" />
      <path
         d="m 166.4584,73.908428 q -2.4384,0 -4.191,-1.8034 -1.7526,-1.8288 -1.7526,-4.2418 0,-2.413 1.778,-4.1656 1.778,-1.778 4.2672,-1.778 2.5146,0 4.2672,1.778 1.778,1.7526 1.778,4.191 0,2.413 -1.7272,4.2164 -1.7272,1.8034 -4.191,1.8034 z m 5.334,-5.969 q 0,-2.159 -1.5494,-3.7338 -1.524,-1.5748 -3.6576,-1.5748 -2.1336,0 -3.7084,1.6002 -1.5494,1.5748 -1.5494,3.7084 0,2.1336 1.5494,3.7084 1.5748,1.5494 3.7084,1.5494 2.159,0 3.683,-1.5494 1.524,-1.5748 1.524,-3.7084 z"
         id="path348" />
    </g>
  </g>
  <g
     inkscape:groupmode="layer"
     id="layer3"
     inkscape:label="Lenses"
     transform="translate(-22.886457,-45.905209)">
    <path
       d="m 102.88224,67.939428 c 0,1.439333 0.51648,2.683933 1.5494,3.7338 1.04987,1.032934 2.286,1.5494 3.70839,1.5494 1.43935,0 2.66701,-0.516466 3.683,-1.5494 1.016,-1.049867 1.524,-2.294467 1.524,-3.7338 0,-1.439333 -0.508,-2.675467 -1.524,-3.708401 -1.01599,-1.049866 -2.24365,-1.574799 -3.683,-1.574799 -1.42239,0 -2.65852,0.524933 -3.70839,1.574799 -1.03292,1.032934 -1.5494,2.269068 -1.5494,3.708401 z"
       id="path430-1-0"
       style="fill:#aaffcc;stroke-width:1" />
    <path
       d="m 103.93652,67.939428 c 0,1.149321 0.41241,2.143145 1.23721,2.981474 0.83833,0.824806 1.82539,1.23721 2.96119,1.23721 1.14932,0 2.12963,-0.412404 2.94091,-1.23721 0.81128,-0.838329 1.21692,-1.832153 1.21692,-2.981474 0,-1.149321 -0.40564,-2.136385 -1.21692,-2.961192 -0.81128,-0.838328 -1.79159,-1.257492 -2.94091,-1.257492 -1.1358,0 -2.12286,0.419164 -2.96119,1.257492 -0.8248,0.824807 -1.23721,1.811871 -1.23721,2.961192 z"
       id="path430"
       style="fill:#00aa44;stroke-width:0.798509" />
    <path
       d="m 104.53531,67.939428 c 0,0.984605 0.35331,1.835998 1.0599,2.554181 0.71818,0.706599 1.56378,1.059898 2.5368,1.059898 0.98461,0 1.82442,-0.353299 2.51943,-1.059898 0.69501,-0.718183 1.04252,-1.569576 1.04252,-2.554181 0,-0.984605 -0.34751,-1.830207 -1.04252,-2.536806 -0.69501,-0.718182 -1.53482,-1.077273 -2.51943,-1.077273 -0.97302,0 -1.81862,0.359091 -2.5368,1.077273 -0.70659,0.706599 -1.0599,1.552201 -1.0599,2.536806 z"
       id="path430-1"
       style="fill:#aaffcc;stroke-width:0.68407" />
    <path
       d="m 105.55547,67.939428 c 0,0.703978 0.25261,1.312711 0.75781,1.826201 0.51349,0.505207 1.11808,0.757812 1.81378,0.757812 0.70398,0 1.30443,-0.252605 1.80136,-0.757812 0.49692,-0.51349 0.74538,-1.122223 0.74538,-1.826201 0,-0.703978 -0.24846,-1.308571 -0.74538,-1.813778 -0.49693,-0.51349 -1.09738,-0.770235 -1.80136,-0.770235 -0.6957,0 -1.30029,0.256745 -1.81378,0.770235 -0.5052,0.505207 -0.75781,1.1098 -0.75781,1.813778 z"
       id="path430-7"
       style="fill:#00aa44;stroke-width:0.4891" />
    <path
       d="m 106.13208,67.939428 c 0,0.545362 0.1957,1.01694 0.58707,1.414734 0.39779,0.391378 0.86616,0.587067 1.40511,0.587067 0.54536,0 1.01053,-0.195689 1.39548,-0.587067 0.38496,-0.397794 0.57745,-0.869372 0.57745,-1.414734 0,-0.545362 -0.19249,-1.013733 -0.57745,-1.40511 -0.38495,-0.397794 -0.85012,-0.596691 -1.39548,-0.596691 -0.53895,0 -1.00732,0.198897 -1.40511,0.596691 -0.39137,0.391377 -0.58707,0.859748 -0.58707,1.40511 z"
       id="path430-1-8"
       style="fill:#aaffcc;stroke-width:0.378899" />
    <path
       style="fill:#aaffcc;stroke-width:0.246123;stroke-miterlimit:10;stroke-dashoffset:39.9975;paint-order:stroke markers fill"
       id="path600"
       sodipodi:type="arc"
       sodipodi:cx="108.11464"
       sodipodi:cy="67.939423"
       sodipodi:rx="5.2323995"
       sodipodi:ry="5.2323995"
       sodipodi:start="0.25310884"
       sodipodi:end="1.3310633"
       sodipodi:arc-type="slice"
       d="m 113.18033,69.249694 a 5.2323995,5.2323995 0 0 1 -3.82329,3.772489 l -1.2424,-5.08276 z" />
    <path
       d="m 130.66983,67.939428 c 0,1.439333 0.51648,2.683933 1.5494,3.7338 1.04987,1.032934 2.286,1.5494 3.70839,1.5494 1.43935,0 2.66701,-0.516466 3.683,-1.5494 1.016,-1.049867 1.524,-2.294467 1.524,-3.7338 0,-1.439333 -0.508,-2.675467 -1.524,-3.708401 -1.01599,-1.049866 -2.24365,-1.574799 -3.683,-1.574799 -1.42239,0 -2.65852,0.524933 -3.70839,1.574799 -1.03292,1.032934 -1.5494,2.269068 -1.5494,3.708401 z"
       id="path430-1-0-4"
       style="fill:#ffeeaa;stroke-width:1" />
    <path
       d="m 131.72411,67.939428 c 0,1.149321 0.41241,2.143145 1.23721,2.981474 0.83833,0.824806 1.82539,1.23721 2.96119,1.23721 1.14932,0 2.12963,-0.412404 2.94091,-1.23721 0.81128,-0.838329 1.21692,-1.832153 1.21692,-2.981474 0,-1.149321 -0.40564,-2.136385 -1.21692,-2.961192 -0.81128,-0.838328 -1.79159,-1.257492 -2.94091,-1.257492 -1.1358,0 -2.12286,0.419164 -2.96119,1.257492 -0.8248,0.824807 -1.23721,1.811871 -1.23721,2.961192 z"
       id="path430-9"
       style="fill:#d4aa00;stroke-width:0.798509" />
    <path
       d="m 132.3229,67.939428 c 0,0.984605 0.35331,1.835998 1.0599,2.554181 0.71818,0.706599 1.56378,1.059898 2.5368,1.059898 0.98461,0 1.82442,-0.353299 2.51943,-1.059898 0.69501,-0.718183 1.04252,-1.569576 1.04252,-2.554181 0,-0.984605 -0.34751,-1.830207 -1.04252,-2.536806 -0.69501,-0.718182 -1.53482,-1.077273 -2.51943,-1.077273 -0.97302,0 -1.81862,0.359091 -2.5368,1.077273 -0.70659,0.706599 -1.0599,1.552201 -1.0599,2.536806 z"
       id="path430-1-1"
       style="fill:#ffeeaa;stroke-width:0.68407" />
    <path
       d="m 133.34306,67.939428 c 0,0.703978 0.25261,1.312711 0.75781,1.826201 0.51349,0.505207 1.11808,0.757812 1.81378,0.757812 0.70398,0 1.30443,-0.252605 1.80136,-0.757812 0.49692,-0.51349 0.74538,-1.122223 0.74538,-1.826201 0,-0.703978 -0.24846,-1.308571 -0.74538,-1.813778 -0.49693,-0.51349 -1.09738,-0.770235 -1.80136,-0.770235 -0.6957,0 -1.30029,0.256745 -1.81378,0.770235 -0.5052,0.505207 -0.75781,1.1098 -0.75781,1.813778 z"
       id="path430-7-1"
       style="fill:#d4aa00;stroke-width:0.4891" />
    <path
       d="m 133.91967,67.939428 c 0,0.545362 0.1957,1.01694 0.58707,1.414734 0.39779,0.391378 0.86616,0.587067 1.40511,0.587067 0.54536,0 1.01053,-0.195689 1.39548,-0.587067 0.38496,-0.397794 0.57745,-0.869372 0.57745,-1.414734 0,-0.545362 -0.19249,-1.013733 -0.57745,-1.40511 -0.38495,-0.397794 -0.85012,-0.596691 -1.39548,-0.596691 -0.53895,0 -1.00732,0.198897 -1.40511,0.596691 -0.39137,0.391377 -0.58707,0.859748 -0.58707,1.40511 z"
       id="path430-1-8-4"
       style="fill:#ffeeaa;stroke-width:0.378899" />
    <path
       style="fill:#ffeeaa;stroke-width:0.246123;stroke-miterlimit:10;stroke-dashoffset:39.9975;paint-order:stroke markers fill"
       id="path600-6"
       sodipodi:type="arc"
       sodipodi:cx="135.90222"
       sodipodi:cy="67.939423"
       sodipodi:rx="5.2323995"
       sodipodi:ry="5.2323995"
       sodipodi:start="0.25310884"
       sodipodi:end="1.3310633"
       sodipodi:arc-type="slice"
       d="m 140.96791,69.249694 a 5.2323995,5.2323995 0 0 1 -3.82329,3.772489 l -1.2424,-5.08276 z" />
    <path
       d="m 161.3276,67.939428 c 0,1.439333 0.51648,2.683933 1.5494,3.7338 1.04987,1.032934 2.286,1.5494 3.70839,1.5494 1.43935,0 2.66701,-0.516466 3.683,-1.5494 1.016,-1.049867 1.524,-2.294467 1.524,-3.7338 0,-1.439333 -0.508,-2.675467 -1.524,-3.708401 -1.01599,-1.049866 -2.24365,-1.574799 -3.683,-1.574799 -1.42239,0 -2.65852,0.524933 -3.70839,1.574799 -1.03292,1.032934 -1.5494,2.269068 -1.5494,3.708401 z"
       id="path430-1-0-8"
       style="fill:#ffaaaa;stroke-width:1" />
    <path
       d="m 162.38188,67.939428 c 0,1.149321 0.41241,2.143145 1.23721,2.981474 0.83833,0.824806 1.82539,1.23721 2.96119,1.23721 1.14932,0 2.12963,-0.412404 2.94091,-1.23721 0.81128,-0.838329 1.21692,-1.832153 1.21692,-2.981474 0,-1.149321 -0.40564,-2.136385 -1.21692,-2.961192 -0.81128,-0.838328 -1.79159,-1.257492 -2.94091,-1.257492 -1.1358,0 -2.12286,0.419164 -2.96119,1.257492 -0.8248,0.824807 -1.23721,1.811871 -1.23721,2.961192 z"
       id="path430-72"
       style="fill:#d40000;stroke-width:0.798509" />
    <path
       d="m 162.98067,67.939428 c 0,0.984605 0.35331,1.835998 1.0599,2.554181 0.71818,0.706599 1.56378,1.059898 2.5368,1.059898 0.98461,0 1.82442,-0.353299 2.51943,-1.059898 0.69501,-0.718183 1.04252,-1.569576 1.04252,-2.554181 0,-0.984605 -0.34751,-1.830207 -1.04252,-2.536806 -0.69501,-0.718182 -1.53482,-1.077273 -2.51943,-1.077273 -0.97302,0 -1.81862,0.359091 -2.5368,1.077273 -0.70659,0.706599 -1.0599,1.552201 -1.0599,2.536806 z"
       id="path430-1-10"
       style="fill:#ffaaaa;stroke-width:0.68407" />
    <path
       d="m 164.00083,67.939428 c 0,0.703978 0.25261,1.312711 0.75781,1.826201 0.51349,0.505207 1.11808,0.757812 1.81378,0.757812 0.70398,0 1.30443,-0.252605 1.80136,-0.757812 0.49692,-0.51349 0.74538,-1.122223 0.74538,-1.826201 0,-0.703978 -0.24846,-1.308571 -0.74538,-1.813778 -0.49693,-0.51349 -1.09738,-0.770235 -1.80136,-0.770235 -0.6957,0 -1.30029,0.256745 -1.81378,0.770235 -0.5052,0.505207 -0.75781,1.1098 -0.75781,1.813778 z"
       id="path430-7-3"
       style="fill:#d40000;stroke-width:0.4891" />
    <path
       d="m 164.57744,67.939428 c 0,0.545362 0.1957,1.01694 0.58707,1.414734 0.39779,0.391378 0.86616,0.587067 1.40511,0.587067 0.54536,0 1.01053,-0.195689 1.39548,-0.587067 0.38496,-0.397794 0.57745,-0.869372 0.57745,-1.414734 0,-0.545362 -0.19249,-1.013733 -0.57745,-1.40511 -0.38495,-0.397794 -0.85012,-0.596691 -1.39548,-0.596691 -0.53895,0 -1.00732,0.198897 -1.40511,0.596691 -0.39137,0.391377 -0.58707,0.859748 -0.58707,1.40511 z"
       id="path430-1-8-8"
       style="fill:#ffaaaa;stroke-width:0.378899" />
    <path
       style="fill:#ffaaaa;stroke-width:0.246123;stroke-miterlimit:10;stroke-dashoffset:39.9975;paint-order:stroke markers fill"
       id="path600-3"
       sodipodi:type="arc"
       sodipodi:cx="166.56"
       sodipodi:cy="67.939423"
       sodipodi:rx="5.2323995"
       sodipodi:ry="5.2323995"
       sodipodi:start="0.25310884"
       sodipodi:end="1.3310633"
       sodipodi:arc-type="slice"
       d="m 171.62569,69.249694 a 5.2323995,5.2323995 0 0 1 -3.82329,3.772489 l -1.2424,-5.08276 z" />
  </g>
  <g
     inkscape:groupmode="layer"
     id="layer4"
     inkscape:label="Lever"
     transform="translate(-22.886457,-45.905209)">
    <path
       id="path344-7"
       style="font-size:25.4px;line-height:4.99999px;font-family:'Poiret One';-inkscape-font-specification:'Poiret One';letter-spacing:0px;word-spacing:0px;stroke-width:0.264583"
       d="m 145.36529,54.568245 c -0.25674,-6.52e-4 -0.4417,0.394433 -0.37982,1.287777 0.1008,1.453385 0.12251,2.269683 0.062,2.342493 -0.0307,0.03692 -0.0702,0.253995 -0.0879,0.482141 -0.0489,0.634729 -0.0739,0.60275 -0.31936,-0.402559 -0.0422,-0.1728 -0.14994,-0.575863 -0.26459,-0.991671 -0.1276,-0.462691 -0.22811,-0.668326 -0.43149,-0.880567 -0.345,-0.3599 -0.48866,-0.161472 -0.25477,0.351917 0.0688,0.150764 0.13693,0.319738 0.15193,0.375688 0.015,0.05595 0.0644,0.228025 0.11059,0.381888 0.14456,0.482801 0.38085,1.606861 0.38085,1.811776 0,0.223598 0.14022,0.41579 0.38137,0.522449 l 0.22893,0.101286 c 0,0 0.002,6.656754 0.002,9.6144 0,1.253066 0.42354,2.28572 1.27021,3.098519 0.84667,0.795866 1.87093,1.193725 3.0732,1.193725 V 73.14644 c -0.98213,0 -1.82031,-0.338627 -2.51458,-1.015959 -0.67733,-0.677332 -1.01596,-1.532286 -1.01596,-2.565218 7.2e-4,-3.287237 -5.2e-4,-10.012309 -5.2e-4,-10.012309 0,-0.934538 -0.0167,-1.330023 -0.0579,-1.355473 -0.0418,-0.0258 -0.0489,-0.238129 -0.0248,-0.753442 0.0183,-0.394535 0.048,-1.144288 0.0656,-1.666048 0.0113,-0.338781 0.044,-0.948326 -0.10025,-1.080554 -0.095,-0.08438 -0.18882,-0.128974 -0.2744,-0.129192 z"
       sodipodi:nodetypes="scscssccccssccccccccscccs" />
  </g>
  <g
     inkscape:groupmode="layer"
     id="layer5"
     inkscape:label="Crossing"
     style="display:inline;fill:#ffffff"
     transform="translate(-22.886457,-45.905209)">
    <path
       d="m 178.80162,66.171019 -2.6157,-3.971991 h 0.7169 l 1.93756,2.945086 1.93755,-2.945086 h 0.62002 z"
       id="path350-3"
       style="font-size:25.4px;line-height:4.99999px;font-family:'Poiret One';-inkscape-font-specification:'Poiret One';letter-spacing:0px;word-spacing:0px;display:inline;fill:#000000;stroke-width:0.201829"
       sodipodi:nodetypes="ccccccc" />
    <path
       d="m 178.45155,66.694828 -4.5466,6.9342 h -0.8128 l 4.4958,-6.858 -3.0226,-4.572 h 0.9398 z"
       id="path350-3-7"
       style="font-size:25.4px;line-height:4.99999px;font-family:'Poiret One';-inkscape-font-specification:'Poiret One';letter-spacing:0px;word-spacing:0px;fill:#000000;stroke-width:0.264583"
       sodipodi:nodetypes="ccccccc" />
    <path
       d="m 179.1277,66.694828 4.5466,6.9342 h 0.8128 l -4.4958,-6.858 3.0226,-4.572 h -0.9398 z"
       id="path350-3-7-1"
       style="font-size:25.4px;line-height:4.99999px;font-family:'Poiret One';-inkscape-font-specification:'Poiret One';letter-spacing:0px;word-spacing:0px;fill:#000000;stroke-width:0.264583"
       sodipodi:nodetypes="ccccccc" />
    <path
       d="m 183.04895,73.629028 h -0.80362 l -3.51855,-5.321269 -3.49684,5.321269 h -0.69502 l 4.2353,-6.4724 z"
       id="path350-2"
       style="font-size:25.4px;line-height:4.99999px;font-family:'Poiret One';-inkscape-font-specification:'Poiret One';letter-spacing:0px;word-spacing:0px;fill:#000000;stroke-width:0.226244"
       sodipodi:nodetypes="ccccccc" />
  </g>
  <g
     inkscape:groupmode="layer"
     id="layer7"
     inkscape:label="Shunts"
     style="display:inline;fill:#d4aa00"
     transform="translate(-22.886457,-45.905209)">
    <rect
       style="fill:#ff0000;stroke:none;stroke-width:0.221565;stroke-miterlimit:10;stroke-dashoffset:39.9975;paint-order:stroke markers fill"
       id="rect2081"
       width="11.085003"
       height="2.525697"
       x="-7.4983788"
       y="92.891159"
       transform="rotate(-45)" />
    <path
       d="m 69.816257,65.128536 c -1.781605,-2.067818 -3.374545,-2.472308 -4.729212,-2.472308 -1.337733,0 -2.531533,0.524933 -3.5814,1.5748 -1.032933,1.032933 -1.5494,1.898465 -1.5494,3.5814 0,1.682935 0.750673,2.885382 1.591857,3.734088 0.841184,0.848706 2.077765,1.676112 3.462743,1.676112 1.384978,0 1.921933,-0.2286 2.7178,-0.6858 0.8128,-0.474133 1.481667,-1.100667 2.0066,-1.8796 v 1.2954 c -1.202267,1.3208 -2.658533,1.9812 -4.3688,1.9812 h -0.2286 c -1.608667,0 -3.014133,-0.601133 -4.2164,-1.8034 -1.185333,-1.2192 -1.778,-2.633133 -1.778,-4.2418 0,-1.608667 0.592667,-2.9972 1.778,-4.1656 1.185333,-1.185333 2.650067,-1.778 4.3942,-1.778 1.744133,0 3.567261,0.758346 5.014631,2.688448 z"
       id="path330-3"
       style="font-size:25.4px;line-height:4.99999px;font-family:'Poiret One';-inkscape-font-specification:'Poiret One';letter-spacing:0px;word-spacing:0px;fill:#000000;stroke-width:0.264583"
       sodipodi:nodetypes="csszzzcccsscscscc" />
    <rect
       style="fill:#ffcc00;stroke:none;stroke-width:0.221565;stroke-miterlimit:10;stroke-dashoffset:39.9975;paint-order:stroke markers fill"
       id="rect2081-3"
       width="11.085003"
       height="2.525697"
       x="31.198149"
       y="66.814552" />
    <path
       d="m 36.63905,73.908428 q -2.4384,0 -4.191,-1.8034 -1.7526,-1.8288 -1.7526,-4.2418 0,-2.413 1.778,-4.1656 1.778,-1.778 4.2672,-1.778 2.5146,0 4.2672,1.778 1.778,1.7526 1.778,4.191 0,2.413 -1.7272,4.2164 -1.7272,1.8034 -4.191,1.8034 z m 5.334,-5.969 q 0,-2.159 -1.5494,-3.7338 -1.524,-1.5748 -3.6576,-1.5748 -2.1336,0 -3.7084,1.6002 -1.5494,1.5748 -1.5494,3.7084 0,2.1336 1.5494,3.7084 1.5748,1.5494 3.7084,1.5494 2.159,0 3.683,-1.5494 1.524,-1.5748 1.524,-3.7084 z"
       id="path326-3"
       style="font-size:25.4px;line-height:4.99999px;font-family:'Poiret One';-inkscape-font-specification:'Poiret One';letter-spacing:0px;word-spacing:0px;fill:#000000;stroke-width:0.264583" />
  </g>
</svg>
